<svg width="504" height="144" viewBox="0 0 504 144" fill="none" xmlns="http://www.w3.org/2000/svg">
<g clip-path="url(#clip0_806_561)">
<path d="M36.6661 113.548C36.6661 121.948 33.212 133.243 23.0126 133.243C17.8989 133.243 14.8888 130.611 14.8888 125.379C14.8911 115.505 29.3686 113.548 36.6661 113.548ZM51.2947 142.464V95.7833C51.2947 80.6491 41.3532 75.4198 27.4254 75.4198C13.8044 75.4198 2.46135 81.2006 2.46135 96.2163H17.3817C17.3817 89.7308 20.8311 86.1687 27.4266 86.1687C34.996 86.1687 36.6672 91.6535 36.6672 98.1321V104.608C21.7783 105.019 0.000976562 107.092 0.000976562 126.784C0.000976562 137.934 8.83022 143.992 19.2923 143.992C26.4666 143.992 33.0784 141.647 36.4023 134.898H36.6684V142.465H51.2947M96.6542 99.372H112.919C112.919 83.2556 103.977 75.4198 87.9703 75.4198C68.2931 75.4198 57.9193 87.7965 57.9193 106.791C57.9193 129.65 69.6389 143.992 93.0584 143.992C99.5481 143.992 106.019 142.903 112.231 140.96V131.599C108.635 132.833 104.914 133.243 101.222 133.243C83.8143 133.243 74.1866 120.576 74.1866 104.061C74.1866 96.2198 77.0805 86.1687 86.7349 86.1687C94.7238 86.1687 96.6542 92.6345 96.6542 99.372ZM155.431 99.372H171.714C171.714 83.2556 162.735 75.4198 146.754 75.4198C127.049 75.4198 116.707 87.7965 116.707 106.791C116.707 129.65 128.414 143.992 151.849 143.992C158.322 143.992 164.817 142.903 171.005 140.96V131.599C167.432 132.833 163.702 133.243 159.984 133.243C142.625 133.243 132.949 120.576 132.949 104.061C132.949 96.2198 135.869 86.1687 145.506 86.1687C153.497 86.1687 155.431 92.6345 155.431 99.372ZM215.41 96.4753H191.427C192.127 89.8608 197.206 85.1609 203.771 85.1609C210.83 85.1609 215.41 89.4602 215.41 96.4753ZM229.884 105.723V101.989C229.884 86.0201 221.615 75.4198 204.932 75.4198C185.372 75.4198 176.798 87.6734 176.798 106.264C176.798 127.859 186.581 143.994 209.872 143.994C216.085 143.994 222.32 143.313 228.191 141.375V130.778C224.328 132.145 219.807 133.242 215.675 133.242C200.799 133.242 190.981 119.623 190.981 105.724H229.884M275.222 142.464H290.556V97.0302C290.556 85.7542 285.266 75.4198 272.745 75.4198C263.37 75.4198 256.774 80.8047 253.311 89.1793H253.04V76.8967H237.709V142.469H253.04V114.108C253.04 105.277 257.456 89.7354 268.441 89.7354C270.015 89.7354 271.746 89.8608 272.887 90.9847C275.47 93.4496 275.222 101.842 275.222 105.019V142.464ZM322.343 87.5318H341.832V76.8967H322.343V55.1689L307.109 61.3608V76.8932H294.271V87.5283H307.109V125.938C307.109 139.584 313.792 143.99 327.206 143.99C331.36 143.99 335.599 143.591 339.711 142.901V132.141C337.406 132.709 335.075 133.236 332.693 133.236C323.156 133.236 322.341 126.218 322.341 118.492V87.5318M386.098 142.464H401.4V76.8955H386.098V105.275C386.098 114.104 381.682 129.651 370.634 129.651C369.14 129.651 367.319 129.541 366.217 128.433C363.585 125.942 363.883 117.539 363.883 114.389V76.8943H348.604V122.37C348.604 133.67 353.797 143.993 366.37 143.993C375.629 143.993 382.375 138.474 385.835 130.237H386.098V142.464ZM426.356 113.697C426.356 98.2714 432.137 91.4015 447.835 91.4015V75.4198C436.83 75.4198 431.699 79.9676 426.614 89.0272H426.354V76.8932H411.027V142.465H426.354V113.697M489.532 96.4753H465.539C466.232 89.8608 471.326 85.1609 477.928 85.1609C484.98 85.1609 489.532 89.4602 489.532 96.4753ZM504 105.723V101.989C504 86.0201 495.74 75.4198 479.044 75.4198C459.477 75.4198 450.927 87.6734 450.927 106.264C450.927 127.859 460.716 143.994 483.99 143.994C490.201 143.994 496.414 143.313 502.338 141.375V130.778C498.484 132.145 493.932 133.242 489.826 133.242C474.898 133.242 465.115 119.623 465.115 105.724H503.999" fill="#555555"/>
<path d="M294.254 0.00439453V10.7847C294.254 10.7847 324.809 22.6133 329.184 24.3143C324.809 25.9896 294.254 37.7591 294.254 37.7591V48.5243L341.844 29.2092V19.3288L294.254 0.00439453Z" fill="#555555"/>
</g>
<defs>
<clipPath id="clip0_806_561">
<rect width="504" height="144" fill="white"/>
</clipPath>
</defs>
</svg>
