<svg width="125" height="144" viewBox="0 0 125 144" fill="none" xmlns="http://www.w3.org/2000/svg">
<path d="M61.3169 34.8398C69.2733 34.8398 76.2531 31.7343 82.2561 25.523C88.2591 19.3118 91.2608 12.0892 91.2608 3.85526C91.2608 2.95094 91.1892 1.66585 91.0464 0C89.9982 0.142787 89.2121 0.261777 88.688 0.356968C81.3509 1.40408 74.8952 4.99756 69.3209 11.1373C63.7468 17.2771 60.9597 23.8453 60.9597 30.8419C60.9597 31.6509 61.0787 32.9837 61.3169 34.8398ZM89.8314 144C95.5009 144 101.766 140.121 108.627 132.363C115.487 124.605 120.728 115.49 124.349 105.019C110.866 98.0704 104.124 88.0992 104.124 75.1056C104.124 64.2539 109.58 54.9728 120.49 47.2623C112.915 37.7908 102.91 33.055 90.4747 33.055C85.2338 33.055 80.4458 33.8403 76.1102 35.411L73.3946 36.4105L69.7498 37.8384C67.3676 38.7427 65.1998 39.195 63.2465 39.195C61.7218 39.195 59.7207 38.6713 57.2435 37.6242L54.4562 36.4819L51.8121 35.411C47.9529 33.7927 43.808 32.9836 39.3772 32.9836C27.514 32.9836 17.9854 36.9816 10.7912 44.9777C3.59702 52.9737 0 63.5161 0 76.6048C0 95.0242 5.76479 112.04 17.2945 127.651C25.2987 138.55 32.6119 144 39.2342 144C42.0453 144 44.8324 143.453 47.5956 142.358L51.0974 140.93L53.8847 139.931C57.7913 138.55 61.3884 137.86 64.6757 137.86C68.1537 137.86 72.1558 138.741 76.6819 140.502L78.8973 141.358C83.5185 143.119 87.1635 144 89.8314 144Z" fill="#555555"/>
</svg>
