<svg width="913" height="144" viewBox="0 0 913 144" fill="none" xmlns="http://www.w3.org/2000/svg">
<path d="M900.388 101.057C899.67 100.656 898.527 100.459 896.955 100.459H894.533V106.283H897.097C898.292 106.283 899.197 106.166 899.794 105.924C900.906 105.485 901.459 104.649 901.459 103.413C901.459 102.242 901.1 101.458 900.388 101.057ZM897.328 98.5215C899.321 98.5215 900.786 98.7149 901.718 99.1018C903.383 99.7961 904.212 101.154 904.212 103.178C904.212 104.615 903.684 105.672 902.644 106.352C902.084 106.711 901.311 106.97 900.312 107.129C901.57 107.33 902.495 107.855 903.076 108.704C903.659 109.558 903.953 110.387 903.953 111.195V112.373C903.953 112.742 903.953 113.143 903.991 113.568C904.026 113.993 904.067 114.273 904.129 114.404L904.233 114.604H901.577C901.577 114.553 901.542 114.497 901.539 114.445C901.539 114.39 901.504 114.331 901.497 114.269L901.438 113.751V112.476C901.438 110.621 900.934 109.392 899.922 108.798C899.321 108.452 898.274 108.279 896.768 108.279H894.533V114.604H891.701V98.5214L897.328 98.5215ZM888.71 97.7063C886.261 100.166 885.038 103.14 885.038 106.625C885.038 110.134 886.254 113.129 888.689 115.602C891.138 118.076 894.109 119.312 897.608 119.312C901.107 119.312 904.081 118.076 906.523 115.602C908.972 113.129 910.198 110.134 910.198 106.625C910.198 103.14 908.972 100.166 906.523 97.7063C904.067 95.2297 901.093 93.9931 897.608 93.9931C894.136 93.9931 891.169 95.2297 888.71 97.7063ZM907.981 116.998C905.121 119.872 901.666 121.309 897.608 121.309C893.553 121.309 890.098 119.872 887.252 116.998C884.42 114.138 883 110.673 883 106.604C883 102.573 884.43 99.1294 887.294 96.2694C890.14 93.4231 893.577 92 897.608 92C901.666 92 905.121 93.4231 907.981 96.2694C910.841 99.1156 912.271 102.559 912.271 106.604C912.271 110.66 910.841 114.124 907.981 116.998Z" fill="#555555"/>
<path d="M101.25 60.0073H137.439C135.703 50.9732 129.777 45.6607 121.27 45.6607C111.798 45.6607 104.475 50.9671 101.25 60.0073ZM124.495 114.856C99.6157 114.856 81.5506 96.8005 81.5506 71.9028C81.5506 46.5332 98.293 28.8134 122.275 28.8134C146.658 28.8134 157.57 48.0903 157.57 67.1976C157.57 69.0754 157.286 72.393 157.24 72.7075L156.922 76.4414H100.818C102.677 89.2433 111.955 97.4079 124.939 97.4079C135.82 97.4079 143.303 90.3656 144.12 89.5547L147.802 85.716L157.443 100.599L154.983 103.035C154.514 103.504 142.946 114.856 124.495 114.856ZM18.7712 45.9228H38.5075C46.5827 45.9228 51.7997 40.4776 51.7997 32.0509C51.7997 23.6396 46.777 18.6231 38.3718 18.6231H18.7712V45.9228ZM18.7811 95.3514L39.8648 95.3945C49.8239 95.3945 55.7716 89.4283 55.7716 79.4415C55.7716 69.5841 49.4601 63.2201 39.689 63.2201H18.7718L18.7811 95.3514ZM14.2548 112.985H0.0468664L0.0221999 100.371C0.00739995 100.201 0 99.9887 0 99.7667V1.16537H1.9209L3.0494 1.03291H38.6555C57.92 1.03291 70.8576 13.1966 70.8576 31.3111C70.8576 40.2372 67.6448 47.9178 61.7464 53.2642C70.0991 58.583 74.9985 68.2646 74.9985 79.7468C74.9985 99.6188 60.8708 112.976 39.858 112.976L14.2548 112.985ZM719.8 113.081H707.442C698.787 113.081 694.218 108.517 694.218 99.8624V36.8209L712.736 26.1681L712.705 95.9188H719.794V113.081H719.8ZM703.964 22.6439C697.727 22.6439 692.655 17.5718 692.655 11.325C692.655 5.0813 697.727 0 703.964 0C710.214 0 715.296 5.0813 715.296 11.325C715.296 17.5718 710.214 22.6439 703.964 22.6439ZM334.383 113.081H322.028C313.392 113.081 308.816 108.517 308.816 99.8624L308.796 36.8209L327.336 26.1681L327.324 95.9188H334.382L334.383 113.081ZM318.562 22.6593C312.325 22.6593 307.25 17.5749 307.25 11.325C307.25 5.0813 312.325 0 318.562 0C324.806 0 329.891 5.0813 329.891 11.325C329.891 17.5749 324.806 22.6593 318.562 22.6593ZM272.162 113.081H253.68V30.5371H271.995V42.8735C276.765 35.0449 283.81 29.8465 291.18 29.8465C293.544 29.8465 295.703 30.2781 296.15 30.3922L299.393 31.1446V49.3669L294.466 48.5499C294.238 48.5097 292.854 48.3187 291.497 48.3187C283.693 48.3187 277.015 54.4946 274.064 64.426C272.815 68.3788 272.162 72.9328 272.162 77.641V113.081ZM810.65 113.081H798.338C789.702 113.081 785.136 108.517 785.136 99.8624V64.3888C785.136 50.9857 782.274 46.6845 773.342 46.6845C762.785 46.6845 753.381 54.0073 750.476 64.4906C749.782 66.911 749.443 69.8093 749.443 73.3767V113.081H730.956L730.925 30.679L735.078 30.5371H749.332V40.4037C754.238 34.7027 762.439 28.8136 774.492 28.8136C794.065 28.8136 803.586 39.5928 803.586 61.7557V95.9188H810.638V113.081H810.65ZM425.942 113.081H413.633C404.997 113.081 400.431 108.517 400.431 99.8624V64.3888C400.431 50.9857 397.569 46.6845 388.634 46.6845C378.08 46.6845 368.676 54.0073 365.768 64.4906C365.074 66.911 364.741 69.8093 364.741 73.3767V113.081H346.254L346.229 30.679L350.385 30.5371H364.639V40.4037C369.545 34.7027 377.744 28.8136 389.796 28.8136C409.375 28.8136 418.893 39.5928 418.893 61.7557V95.9188H425.942V113.081ZM467.971 46.4008C455.995 46.4008 449.4 54.883 449.4 70.2841C449.4 85.417 457.21 95.1973 469.299 95.1973C481.13 95.1973 487.136 86.8631 487.136 70.4414C487.136 53.8192 481.223 46.4008 467.971 46.4008ZM465.615 144C456.824 144 447.565 141.749 439.542 137.648L435.941 135.823L443.356 119.534L447.368 121.791C447.454 121.831 455.779 126.397 465.325 126.397C479.286 126.397 486.973 119.642 486.973 107.373V106.865C481.901 110.706 475.481 112.637 467.813 112.637C445.913 112.637 430.616 95.2991 430.616 70.4414C430.616 45.152 444.864 28.8136 466.935 28.8136C476.684 28.8136 483.1 32.0911 487.614 36.6051L487.632 30.4446H505.53L505.459 107.083C505.459 134.303 484.876 144 465.615 144ZM853.175 113.663C844.166 113.663 823.184 110.571 823.184 81.9236V47.4337H813.471V30.5741H823.319V16.8781L841.647 6.22213V30.5741H860.211V47.4337H841.647V80.8815C841.647 91.0718 845.824 96.2333 854.06 96.2333C855.284 96.2333 856.15 96.0976 856.406 96.0577L861.682 94.9292V112.72L858.152 113.312C858.075 113.324 856.073 113.663 853.175 113.663ZM642.042 46.4009C628.235 46.4009 617.413 57.4145 617.413 71.4652C617.413 86.0122 628.235 97.4082 642.042 97.4082C655.757 97.4082 666.496 86.0122 666.496 71.4652C666.496 57.4145 655.757 46.4009 642.042 46.4009ZM642.042 114.857C617.712 114.857 598.648 95.7987 598.648 71.4652C598.648 47.5479 617.647 28.8137 641.91 28.8137C666.234 28.8137 685.283 47.5479 685.283 71.4652C685.283 95.7987 666.295 114.857 642.042 114.857ZM542.479 54.8646H560.766C572.294 54.8646 579.176 48.0289 579.176 36.5836C579.176 25.4066 572.362 18.7343 560.908 18.7343H542.479V54.8646ZM542.479 113.081H523.686L523.661 1.14403H562.079C583.379 1.14403 598.256 15.7219 598.256 36.5836C598.256 57.7043 583.379 72.458 562.079 72.458H542.479V113.081ZM215.99 74.6564C193.038 74.6564 182.804 78.822 182.804 88.26C182.804 93.4985 187.753 98.7987 196.916 98.7987C209.247 98.7987 215.759 89.7646 215.759 74.5361L215.99 74.6564ZM195.131 114.857C180.522 114.857 165.726 105.872 165.726 88.6762C165.726 58.9716 202.664 58.8205 215.111 58.8205C214.485 50.0423 210.187 46.256 201.033 46.256C190.608 46.256 182.86 52.3209 182.783 52.3887L179.055 55.4196L169.931 40.5981L172.638 38.2332C173.098 37.8385 183.794 28.8137 201.751 28.8137C222.033 28.8137 233.66 40.7091 233.66 61.4598V95.9189H242.364V113.081H228.693C221.487 113.081 218.197 109.556 216.702 104.978C212.12 110.059 205.207 114.857 195.131 114.857Z" fill="#555555"/>
</svg>
