<svg width="288" height="144" viewBox="0 0 288 144" fill="none" xmlns="http://www.w3.org/2000/svg">
<path d="M77.7049 63.4704H47.6569V72.3864H68.9689C67.9129 84.8664 57.5137 90.2232 47.6929 90.2232C44.5818 90.2369 41.499 89.6306 38.6247 88.4398C35.7504 87.2491 33.1421 85.4976 30.9521 83.2877C28.7621 81.0778 27.0343 78.4538 25.8695 75.5688C24.7047 72.6839 24.1264 69.5958 24.1681 66.4848C24.1681 52.9872 34.6177 42.5952 47.7217 42.5952C57.8305 42.5952 63.7873 49.0392 63.7873 49.0392L70.0273 42.5736C70.0273 42.5736 62.0113 33.6528 47.3953 33.6528C28.7833 33.6528 14.3857 49.3608 14.3857 66.3264C14.3857 82.9512 27.9289 99.1632 47.8657 99.1632C65.4025 99.1632 78.2401 87.1488 78.2401 69.384C78.2401 65.6352 77.6953 63.4704 77.6953 63.4704H77.7049Z" fill="#555555"/>
<path d="M102.322 57.0122C89.9906 57.0122 81.1538 66.653 81.1538 77.8922C81.1538 89.3018 89.7218 99.1202 102.466 99.1202C114 99.1202 123.449 90.305 123.449 78.137C123.449 64.217 112.457 57.0098 102.322 57.0098V57.0122ZM102.442 65.2826C108.504 65.2826 114.25 70.1858 114.25 78.0842C114.25 85.8122 108.528 90.857 102.413 90.857C95.693 90.857 90.413 85.4762 90.413 78.0218C90.413 70.7258 95.645 65.2826 102.461 65.2826H102.442Z" fill="#555555"/>
<path d="M148.356 57.0122C136.025 57.0122 127.188 66.653 127.188 77.8922C127.188 89.3018 135.756 99.1202 148.5 99.1202C160.034 99.1202 169.483 90.305 169.483 78.137C169.483 64.217 158.491 57.0098 148.356 57.0098V57.0122ZM148.476 65.2826C154.538 65.2826 160.284 70.1858 160.284 78.0842C160.284 85.8122 154.562 90.857 148.447 90.857C141.727 90.857 136.447 85.4762 136.447 78.0218C136.447 70.7258 141.679 65.2826 148.495 65.2826H148.476Z" fill="#555555"/>
<path d="M193.507 57.0361C182.189 57.0361 173.294 66.9481 173.294 78.0745C173.294 90.7465 183.607 99.1513 193.31 99.1513C199.31 99.1513 202.502 96.7681 204.83 94.0345V98.1865C204.83 105.451 200.419 109.803 193.762 109.803C187.33 109.803 184.104 105.019 182.962 102.307L174.869 105.667C177.739 111.739 183.518 118.068 193.829 118.068C205.109 118.068 213.658 110.981 213.658 96.1153V58.3009H204.864V61.8673C202.152 58.9393 198.437 57.0361 193.512 57.0361H193.507ZM194.323 65.2921C199.872 65.2921 205.57 70.0297 205.57 78.1201C205.57 86.3449 199.882 90.8761 194.201 90.8761C188.167 90.8761 182.554 85.9801 182.554 78.1969C182.554 70.1137 188.386 65.2921 194.323 65.2921Z" fill="#555555"/>
<path d="M252.96 56.9858C242.285 56.9858 233.321 65.4818 233.321 78.0098C233.321 91.2722 243.312 99.137 253.961 99.137C262.87 99.137 268.361 94.265 271.601 89.897L264.322 85.0538C262.433 87.9818 259.274 90.8498 254.006 90.8498C248.088 90.8498 245.366 87.6098 243.679 84.4658L271.91 72.7538L270.47 69.3218C267.744 62.6018 261.379 56.9858 252.96 56.9858ZM253.327 65.0834C257.174 65.0834 259.942 67.1282 261.118 69.581L242.263 77.4602C241.447 71.3594 247.231 65.0834 253.303 65.0834H253.327Z" fill="#555555"/>
<path d="M219.84 97.8888H229.113V35.832H219.84V97.8888Z" fill="#555555"/>
</svg>
