<svg width="675" height="144" viewBox="0 0 675 144" fill="none" xmlns="http://www.w3.org/2000/svg">
<path d="M674.504 65.1425V53.2803H659.774V34.8391L659.278 34.9918L645.442 39.2251L645.169 39.308V53.281H623.331V45.4968C623.331 41.8723 624.142 39.0985 625.739 37.2488C627.325 35.4211 629.594 34.492 632.488 34.492C634.568 34.492 636.722 34.982 638.889 35.9484L639.433 36.1911V23.6986L639.177 23.6046C637.155 22.8778 634.405 22.5117 630.995 22.5117C626.699 22.5117 622.795 23.4467 619.39 25.2998C615.984 27.1555 613.304 29.8045 611.427 33.1727C609.556 36.5369 608.607 40.4224 608.607 44.7223V53.2803H598.35V65.1425H608.607V115.116H623.331V65.1425H645.169V96.8996C645.169 109.979 651.339 116.607 663.505 116.607C665.505 116.607 667.609 116.372 669.758 115.914C671.945 115.443 673.434 114.972 674.311 114.47L674.505 114.355V102.383L673.906 102.779C673.107 103.312 672.112 103.747 670.945 104.07C669.773 104.4 668.794 104.565 668.036 104.565C665.186 104.565 663.077 103.797 661.769 102.281C660.446 100.752 659.775 98.0773 659.775 94.336V65.1425H674.504ZM565.467 104.567C560.122 104.567 555.909 102.795 552.939 99.304C549.951 95.7956 548.438 90.7937 548.438 84.4384C548.438 77.8816 549.951 72.7498 552.941 69.1794C555.912 65.6325 560.085 63.8323 565.347 63.8323C570.453 63.8323 574.517 65.5516 577.428 68.9452C580.354 72.3564 581.839 77.4471 581.839 84.0802C581.839 90.795 580.443 95.9529 577.689 99.4032C574.955 102.827 570.843 104.567 565.467 104.567ZM566.121 51.7907C555.925 51.7907 547.826 54.7784 542.052 60.671C536.281 66.5643 533.356 74.7197 533.356 84.9128C533.356 94.5944 536.211 102.382 541.845 108.055C547.479 113.73 555.145 116.605 564.63 116.605C574.514 116.605 582.452 113.576 588.224 107.602C593.995 101.634 596.919 93.5556 596.919 83.6007C596.919 73.7677 594.175 65.9222 588.761 60.2867C583.345 54.6486 575.727 51.7907 566.121 51.7907ZM509.615 51.7907C502.679 51.7907 496.942 53.5648 492.559 57.0628C488.149 60.5816 485.913 65.1967 485.913 70.7813C485.913 73.6842 486.395 76.2628 487.346 78.4499C488.301 80.6442 489.781 82.5763 491.746 84.1977C493.696 85.8061 496.707 87.4908 500.696 89.2049C504.05 90.5849 506.551 91.7522 508.14 92.6722C509.692 93.5739 510.795 94.4802 511.417 95.363C512.022 96.2269 512.329 97.4092 512.329 98.8682C512.329 103.023 509.217 105.044 502.816 105.044C500.442 105.044 497.733 104.548 494.766 103.571C491.82 102.608 489.04 101.198 486.523 99.3908L485.911 98.9523V113.129L486.136 113.233C488.219 114.195 490.846 115.006 493.942 115.644C497.032 116.283 499.84 116.608 502.279 116.608C509.805 116.608 515.866 114.825 520.289 111.306C524.739 107.763 526.995 103.039 526.995 97.2617C526.995 93.0937 525.781 89.5194 523.387 86.6367C521.01 83.7775 516.885 81.1525 511.131 78.8323C506.546 76.9923 503.609 75.4648 502.398 74.2923C501.23 73.1596 500.637 71.5577 500.637 69.5292C500.637 67.7309 501.369 66.2902 502.871 65.1236C504.386 63.9511 506.494 63.3547 509.138 63.3547C511.591 63.3547 514.101 63.7423 516.598 64.5018C519.092 65.2613 521.283 66.2785 523.112 67.5228L523.714 67.9338V54.4861L523.483 54.3869C521.795 53.6633 519.57 53.0441 516.868 52.5417C514.178 52.0426 511.737 51.7907 509.615 51.7907ZM447.526 104.567C442.183 104.567 437.968 102.795 434.999 99.304C432.011 95.7956 430.5 90.795 430.5 84.4384C430.5 77.8816 432.013 72.7498 435.002 69.1794C437.971 65.6325 442.144 63.8323 447.408 63.8323C452.512 63.8323 456.576 65.5516 459.488 68.9452C462.415 72.3564 463.899 77.4471 463.899 84.0802C463.899 90.795 462.502 95.9529 459.749 99.4032C457.014 102.827 452.904 104.567 447.526 104.567ZM448.183 51.7907C437.984 51.7907 429.884 54.7784 424.113 60.671C418.343 66.5643 415.415 74.7197 415.415 84.9128C415.415 94.5983 418.273 102.382 423.906 108.055C429.54 113.73 437.206 116.605 446.691 116.605C456.574 116.605 464.513 113.576 470.285 107.602C476.055 101.634 478.98 93.5556 478.98 83.6007C478.98 73.7677 476.236 65.9222 470.821 60.2867C465.403 54.6486 457.786 51.7907 448.183 51.7907ZM393.063 63.9889V53.2803H378.518V115.114H393.063V83.4839C393.063 78.1054 394.283 73.6868 396.689 70.3493C399.065 67.0517 402.231 65.3807 406.096 65.3807C407.406 65.3807 408.877 65.5966 410.47 66.024C412.046 66.4488 413.188 66.9101 413.861 67.3955L414.473 67.8386V53.1746L414.237 53.0735C412.883 52.498 410.966 52.2076 408.542 52.2076C404.886 52.2076 401.615 53.3821 398.814 55.6945C396.354 57.727 394.577 60.5138 393.218 63.9889H393.063ZM352.47 51.7907C345.797 51.7907 339.845 53.2216 334.783 56.0423C329.71 58.8695 325.786 62.9058 323.117 68.0382C320.459 73.1583 319.11 79.139 319.11 85.8087C319.11 91.651 320.418 97.0125 323.004 101.738C325.591 106.471 329.253 110.174 333.888 112.742C338.517 115.307 343.867 116.607 349.79 116.607C356.702 116.607 362.604 115.225 367.336 112.5L367.527 112.39V99.0646L366.916 99.5109C364.772 101.072 362.377 102.319 359.8 103.216C357.229 104.113 354.885 104.567 352.83 104.567C347.123 104.567 342.541 102.781 339.215 99.2603C335.882 95.7349 334.192 90.7845 334.192 84.5552C334.192 78.2868 335.955 73.2092 339.428 69.4626C342.89 65.7271 347.481 63.8323 353.07 63.8323C357.851 63.8323 362.509 65.4511 366.917 68.6483L367.527 69.0913V55.0505L367.33 54.9396C365.671 54.0111 363.409 53.2444 360.601 52.6631C357.804 52.083 355.069 51.7907 352.47 51.7907ZM309.092 53.281H294.547V115.114H309.092V53.281ZM301.969 26.9395C299.575 26.9395 297.487 27.7544 295.771 29.3693C294.049 30.9888 293.175 33.0278 293.175 35.4342C293.175 37.8027 294.038 39.8045 295.745 41.3809C297.44 42.9528 299.534 43.7495 301.969 43.7495C304.404 43.7495 306.506 42.9528 308.221 41.3836C309.948 39.8045 310.823 37.8034 310.823 35.4342C310.823 33.112 309.971 31.0939 308.292 29.4346C306.615 27.7786 304.487 26.9395 301.969 26.9395ZM265.677 48.7188V115.114H280.521V28.8323H259.977L233.863 92.9201L208.521 28.8323H187.14V115.114H201.089V48.7123H201.568L228.328 115.114H238.856L265.198 48.7188H265.677Z" fill="#555555"/>
<path d="M68.4248 68.4248H0V0H68.4248V68.4248Z" fill="#555555"/>
<path d="M143.973 68.4248H75.5498V0H143.973V68.4248Z" fill="#555555"/>
<path d="M68.4229 144H0V75.5757H68.4229V144Z" fill="#555555"/>
<path d="M143.973 144H75.5498V75.5757H143.973V144Z" fill="#555555"/>
</svg>
